<?xml version="1.0" standalone="no"?>
<!DOCTYPE svg PUBLIC "-//W3C//DTD SVG 20010904//EN"
 "http://www.w3.org/TR/2001/REC-SVG-20010904/DTD/svg10.dtd">
<svg version="1.0" xmlns="http://www.w3.org/2000/svg"
 width="700.000000pt" height="700.000000pt" viewBox="0 0 700.000000 700.000000"
 preserveAspectRatio="xMidYMid meet">
<metadata>
Created by potrace 1.11, written by Peter Selinger 2001-2013
</metadata>
<g transform="translate(0.000000,700.000000) scale(0.100000,-0.100000)"
fill="#000000" stroke="none">
<path d="M3729 6946 c-2 -2 -26 -7 -53 -10 -315 -42 -658 -238 -866 -494 l-35
-43 -110 152 c-166 231 -182 243 -335 243 -81 0 -105 -4 -164 -29 -125 -50
-309 -190 -387 -292 -21 -29 -31 -33 -84 -37 -231 -19 -465 -109 -660 -254
-119 -90 -312 -298 -413 -447 -174 -259 -248 -550 -219 -870 7 -75 9 -87 33
-210 45 -235 158 -462 288 -583 85 -78 167 -115 281 -128 64 -7 84 -14 44 -15
-78 -2 -217 -73 -284 -143 -41 -43 -117 -140 -143 -181 -89 -143 -176 -381
-211 -580 -20 -111 -23 -319 -6 -439 12 -87 65 -248 116 -352 44 -91 157 -273
196 -316 19 -22 47 -19 -244 -22 -123 -2 -226 -6 -229 -9 -27 -27 37 -178 135
-322 65 -95 183 -246 257 -332 86 -98 73 -84 185 -199 468 -480 956 -772 1379
-822 75 -9 235 -8 284 3 14 3 38 7 54 10 130 25 296 109 421 210 119 98 279
302 329 420 12 28 25 49 29 48 4 -1 35 -12 68 -24 88 -32 149 -48 251 -67 l91
-17 88 -83 c232 -221 466 -323 745 -326 187 -2 306 18 490 80 112 38 339 145
430 202 347 218 589 419 890 739 258 273 495 610 524 745 11 49 -5 54 -180 52
-168 -2 -492 -11 -634 -19 -78 -4 -119 -6 -325 -21 -38 -2 -90 -7 -115 -9 -25
-3 -74 -7 -110 -10 -36 -3 -77 -8 -92 -10 l-26 -5 4 153 c2 83 0 171 -5 195
-5 24 -6 42 -2 40 3 -2 35 -17 71 -35 75 -38 103 -44 185 -44 289 2 699 305
901 667 57 102 121 312 139 454 4 30 9 64 12 75 9 38 12 380 4 430 -5 28 -12
73 -15 100 -19 145 -93 347 -178 487 -173 286 -495 536 -803 625 -77 22 -243
22 -301 0 l-40 -15 13 62 c15 69 20 235 9 311 -17 121 -55 277 -86 350 -4 11
-15 38 -23 60 -65 174 -157 317 -291 450 -237 236 -487 364 -861 441 -33 7
-410 16 -416 10z"/>
</g>
</svg>
